<mxfile host="app.diagrams.net" modified="2023-08-23T17:53:39.659Z" agent="Mozilla/5.0 (Windows NT 10.0; Win64; x64) AppleWebKit/537.36 (KHTML, like Gecko) Chrome/116.0.0.0 Safari/537.36" version="21.6.9" etag="ELNcgqGYHM6nCkhfcXgj" type="github">
  <diagram name="Page-1" id="zp5FGRDh5TRhm47oV1fO">
    <mxGraphModel>
      <root>
        <mxCell id="0" />
        <mxCell id="1" parent="0" />
      </root>
    </mxGraphModel>
  </diagram>
</mxfile>
